<?xml version="1.0" encoding="UTF-8"?>
<svg version="1.1" xmlns="http://www.w3.org/2000/svg" width="1080" height="1080">
<path d="M0,0 L4,0 L5,2 L5,329 L2,347 L-2,359 L-9,373 L-14,378 L-19,384 L-24,388 L-28,393 L-36,398 L-45,404 L-57,409 L-76,412 L-592,412 L-606,409 L-609,408 L-609,406 L-619,404 L-629,399 L-639,391 L-650,380 L-655,374 L-657,366 L-659,366 L-665,353 L-669,328 L-669,41 L-661,41 L-659,45 L-651,52 L-641,62 L-638,64 L-638,67 L-635,67 L-635,69 L-631,71 L-625,76 L-623,83 L-623,314 L-621,332 L-618,342 L-614,346 L-607,354 L-597,360 L-587,363 L-81,363 L-66,359 L-59,356 L-54,351 L-51,351 L-49,345 L-45,338 L-43,338 L-42,329 L-41,45 L-39,38 L-6,5 L-1,2 Z " fill="#21A4B4" transform="translate(861,325)"/>
<path d="M0,0 L551,0 L551,2 L557,2 L555,8 L517,46 L512,51 L505,54 L311,55 L156,55 L-14,54 L-21,52 L-26,47 L-26,44 L-31,42 L-39,36 L-47,26 L-59,15 L-67,6 L-67,1 Z " fill="#23A4B3" transform="translate(259,224)"/>
<path d="M0,0 L13,0 L16,3 L15,15 L10,39 L5,67 L2,88 L0,92 L-7,136 L-13,161 L-20,160 L-50,130 L-50,127 L-55,125 L-58,122 L-63,123 L-71,130 L-75,134 L-78,134 L-80,139 L-103,162 L-108,166 L-112,171 L-117,172 L-119,177 L-123,181 L-126,181 L-128,186 L-135,193 L-141,194 L-149,187 L-156,179 L-164,172 L-171,165 L-175,160 L-181,158 L-181,154 L-179,154 L-177,149 L-104,76 L-113,66 L-151,28 L-152,26 L-152,19 L-129,16 L-115,13 L-78,10 L-53,7 L-48,7 L-48,5 L-8,1 Z " fill="#23A5B4" transform="translate(964,138)"/>
<path d="M0,0 L7,1 L14,8 L16,9 L16,12 L21,14 L29,22 L37,28 L41,33 L46,37 L46,40 L51,42 L58,48 L63,54 L74,63 L90,78 L102,90 L110,97 L122,108 L127,113 L127,115 L132,112 L136,107 L141,102 L149,95 L155,88 L163,81 L164,80 L169,80 L177,86 L185,95 L193,102 L204,114 L204,116 L206,116 L205,121 L198,129 L185,142 L180,146 L173,154 L167,158 L165,158 L163,163 L156,170 L151,175 L148,176 L146,180 L135,190 L128,191 L120,185 L116,181 L116,179 L110,179 L108,174 L95,161 L89,157 L87,154 L83,152 L78,144 L69,138 L68,134 L63,132 L57,127 L50,119 L37,107 L30,101 L30,98 L25,96 L17,89 L17,86 L12,84 L4,77 L-1,73 L-3,73 L-5,68 L-20,54 L-28,47 L-28,44 L-33,42 L-34,41 L-34,34 L-32,30 L-26,26 L-24,21 L-19,19 L-12,11 L-7,6 L-2,1 Z " fill="#22A4B4" transform="translate(385,443)"/>
<path d="M0,0 L9,0 L19,2 L29,6 L36,12 L42,21 L46,32 L46,53 L39,55 L26,55 L19,53 L18,39 L15,32 L12,29 L10,28 L1,28 L-4,30 L-7,39 L-7,119 L-5,128 L-1,132 L1,133 L11,133 L15,131 L18,122 L19,99 L5,99 L4,98 L4,77 L5,76 L45,76 L46,78 L46,133 L42,142 L34,152 L24,158 L14,161 L-2,161 L-15,157 L-25,150 L-31,142 L-35,131 L-36,125 L-36,53 L-35,25 L-31,19 L-23,9 L-13,3 Z " fill="#23A4B2" transform="translate(331,788)"/>
<path d="M0,0 L21,0 L33,5 L42,12 L48,22 L51,35 L51,51 L48,54 L30,54 L25,53 L25,50 L23,50 L23,38 L19,28 L16,27 L6,27 L1,30 L-1,33 L-2,38 L-2,123 L2,131 L4,132 L18,132 L21,131 L23,126 L23,98 L10,98 L9,93 L9,84 L11,75 L26,74 L45,74 L50,76 L51,78 L51,126 L48,138 L41,149 L33,155 L23,159 L18,160 L2,160 L-8,157 L-18,151 L-25,143 L-29,134 L-31,124 L-31,38 L-28,24 L-22,12 L-13,5 L-4,1 Z " fill="#23A5B2" transform="translate(141,789)"/>
<path d="M0,0 L6,1 L14,8 L21,15 L29,22 L39,31 L53,45 L63,53 L72,62 L80,69 L92,80 L96,84 L96,87 L101,89 L111,98 L110,105 L103,112 L98,117 L89,127 L81,135 L78,135 L77,139 L71,138 L61,129 L59,127 L59,124 L53,122 L53,119 L49,118 L49,115 L44,113 L38,108 L38,106 L36,106 L36,104 L32,102 L24,94 L21,92 L21,89 L17,88 L7,79 L2,74 L-5,67 L-13,60 L-29,45 L-31,41 L-33,41 L-34,36 L-30,30 L-26,29 L-24,23 L-21,23 L-20,19 L-17,19 L-15,14 L-8,8 L-7,5 L-5,5 L-4,2 Z " fill="#21A4B4" transform="translate(260,328)"/>
<path d="M0,0 L29,0 L33,11 L46,77 L59,142 L60,156 L59,157 L35,157 L32,154 L30,144 L30,137 L28,137 L28,130 L0,130 L-2,147 L-5,157 L-29,157 L-31,156 L-30,143 L-21,96 L-8,29 L-7,20 L-5,20 L-3,4 Z M14,44 L7,80 L4,98 L4,108 L25,108 L19,69 L15,44 Z " fill="#22A4B2" transform="translate(566,790)"/>
<path d="M0,0 L7,1 L11,3 L11,6 L15,7 L24,17 L29,23 L37,30 L42,35 L43,42 L38,48 L33,52 L26,60 L20,65 L13,73 L4,80 L-3,88 L-11,95 L-14,98 L-17,98 L-19,103 L-26,109 L-31,115 L-39,122 L-49,132 L-56,133 L-63,127 L-68,124 L-70,119 L-70,116 L-75,114 L-80,109 L-80,106 L-85,104 L-89,100 L-89,98 L-91,98 L-91,92 L-82,83 L-78,78 L-70,71 L-60,60 L-55,55 L-51,53 L-49,49 L-16,16 L-11,11 L-2,1 Z " fill="#21A4B4" transform="translate(658,413)"/>
<path d="M0,0 L6,1 L14,8 L40,34 L42,38 L41,43 L37,48 L29,54 L22,62 L10,74 L3,79 L1,79 L-1,84 L-8,90 L-13,96 L-19,100 L-24,106 L-26,106 L-26,108 L-28,108 L-30,113 L-38,119 L-43,124 L-48,129 L-51,131 L-56,130 L-63,123 L-68,118 L-68,115 L-73,113 L-77,109 L-77,106 L-82,104 L-87,98 L-92,93 L-91,88 L-89,85 L-87,85 L-85,81 L-82,80 L-80,76 L-68,65 L-55,52 L-47,45 L-38,36 L-36,36 L-34,32 L-29,27 L-24,22 L-17,15 L-9,8 L-2,1 Z " fill="#21A4B4" transform="translate(768,307)"/>
<path d="M0,0 L8,1 L15,9 L23,15 L31,23 L31,26 L36,28 L43,33 L46,38 L54,45 L66,56 L73,62 L73,65 L78,67 L83,73 L89,77 L96,84 L97,91 L88,101 L70,119 L65,125 L63,126 L57,126 L43,112 L35,106 L31,100 L26,96 L25,92 L21,91 L11,82 L5,76 L5,73 L0,71 L-10,61 L-18,54 L-24,48 L-24,45 L-29,43 L-32,40 L-32,34 L-25,26 L-17,17 L-13,16 L-11,11 L-6,6 L-3,6 L-1,1 Z " fill="#22A4B3" transform="translate(151,226)"/>
<path d="M0,0 L14,0 L27,4 L35,10 L41,17 L45,27 L45,70 L44,71 L17,72 L-3,72 L-2,87 L0,91 L5,93 L12,93 L16,91 L19,82 L21,81 L43,81 L45,82 L45,91 L41,102 L35,110 L25,116 L15,119 L0,119 L-10,116 L-20,110 L-26,103 L-30,93 L-31,87 L-33,87 L-32,40 L-29,23 L-24,14 L-16,4 Z M4,25 L-2,29 L-4,32 L-4,49 L1,50 L14,50 L19,49 L19,35 L16,27 L12,25 Z " fill="#22A3B1" transform="translate(420,830)"/>
<path d="M0,0 L10,1 L20,5 L25,9 L31,19 L32,23 L32,117 L25,119 L9,118 L6,117 L5,115 L4,39 L2,30 L1,28 L-7,27 L-13,29 L-15,33 L-16,89 L-17,114 L-21,119 L-37,119 L-43,117 L-44,115 L-44,8 L-42,3 L-19,3 L-17,7 L-12,5 L-3,1 Z " fill="#23A2B0" transform="translate(952,829)"/>
<path d="M0,0 L18,0 L32,5 L42,14 L47,24 L49,33 L49,85 L46,97 L40,107 L33,113 L25,117 L17,119 L2,119 L-9,116 L-20,108 L-26,98 L-28,92 L-29,85 L-29,31 L-26,19 L-17,9 L-8,3 Z M8,24 L1,28 L-2,34 L-1,83 L2,92 L5,94 L16,94 L21,89 L22,86 L23,43 L21,31 L17,25 Z " fill="#23A4B2" transform="translate(234,830)"/>
<path d="M0,0 L16,0 L28,4 L37,10 L43,18 L47,30 L47,92 L44,100 L35,110 L26,116 L17,119 L2,119 L-11,115 L-21,108 L-25,102 L-27,101 L-30,86 L-30,29 L-27,19 L-20,10 L-9,3 Z M5,24 L-1,28 L-3,32 L-3,84 L1,92 L3,93 L15,93 L20,88 L21,84 L21,34 L17,26 L13,24 Z " fill="#23A4B1" transform="translate(848,830)"/>
<path d="M0,0 L16,0 L27,4 L33,8 L38,13 L43,20 L46,32 L46,40 L45,43 L37,44 L37,46 L35,46 L35,44 L22,44 L19,41 L16,27 L13,26 L4,26 L-1,28 L-2,35 L-2,84 L1,91 L3,92 L15,92 L17,91 L20,78 L24,76 L41,76 L45,77 L46,80 L46,89 L43,99 L37,108 L30,114 L21,118 L17,119 L1,119 L-12,115 L-21,108 L-26,102 L-30,90 L-30,78 L-32,78 L-32,47 L-30,47 L-30,30 L-27,20 L-21,11 L-12,4 L-5,1 Z " fill="#22A4B3" transform="translate(660,830)"/>
<path d="M0,0 L22,0 L24,1 L24,30 L40,30 L42,36 L42,46 L40,52 L25,53 L26,119 L38,120 L41,122 L41,144 L40,145 L18,145 L8,142 L3,138 L-1,131 L-2,127 L-3,112 L-3,53 L-13,52 L-14,50 L-14,32 L-12,30 L-3,30 L-3,3 Z " fill="#23A4B2" transform="translate(725,802)"/>
<path d="M0,0 L23,0 L25,4 L25,30 L40,30 L42,31 L42,51 L41,52 L25,52 L26,115 L28,119 L41,121 L42,122 L42,143 L40,145 L18,145 L8,142 L2,138 L-1,130 L-2,125 L-3,89 L-3,53 L-13,52 L-14,44 L-14,35 L-12,30 L-2,30 L-2,3 Z " fill="#23A3B1" transform="translate(485,802)"/>
<path d="M0,0 L25,0 L26,1 L26,114 L23,115 L2,115 L0,114 Z " fill="#23A3B3" transform="translate(778,832)"/>
<path d="M0,0 L22,0 L24,1 L24,27 L23,28 L-1,28 L-2,27 L-2,1 Z " fill="#24A3B2" transform="translate(780,790)"/>
</svg>
